<?xml version="1.0" standalone="no"?>
<!DOCTYPE svg PUBLIC "-//W3C//DTD SVG 20010904//EN"
 "http://www.w3.org/TR/2001/REC-SVG-20010904/DTD/svg10.dtd">
<svg version="1.0" xmlns="http://www.w3.org/2000/svg"
 width="1280.000000pt" height="914.000000pt" viewBox="0 0 1280.000000 914.000000"
 preserveAspectRatio="xMidYMid meet">
<g transform="translate(0.000000,914.000000) scale(0.100000,-0.100000)"
fill="#000000" stroke="none">
<path d="M277 9115 c-185 -65 -276 -209 -277 -438 l0 -107 1648 2 1647 3 3
283 2 282 -1477 -1 -1478 0 -68 -24z"/>
<path d="M3482 9103 c-14 -32 -17 -78 -20 -288 l-3 -250 67 -29 c86 -38 174
-122 212 -203 l27 -58 5 -650 5 -650 583 -3 582 -2 -2 1082 -3 1083 -718 3
-718 2 -17 -37z"/>
<path d="M5127 8683 c-4 -252 -7 -740 -7 -1086 l0 -627 418 2 417 3 0 550 0
550 26 56 c31 66 84 120 148 151 42 21 64 23 251 28 l205 5 -3 365 c-3 305 -6
373 -20 413 l-16 47 -706 0 -707 0 -6 -457z"/>
<path d="M6865 9128 c-21 -66 -25 -130 -25 -455 l0 -363 765 0 765 0 0 415 0
415 -750 0 c-592 0 -752 -3 -755 -12z"/>
<path d="M8560 8725 l0 -415 130 0 130 0 0 415 0 415 -130 0 -130 0 0 -415z"/>
<path d="M9010 8726 l0 -413 84 -5 c137 -7 228 -65 280 -177 21 -46 21 -53 24
-1039 l2 -992 228 2 227 3 0 770 c0 703 1 774 17 813 39 95 102 162 196 205
45 21 64 22 387 27 l340 5 0 580 c0 436 -3 587 -12 608 l-13 27 -880 0 -880 0
0 -414z"/>
<path d="M10960 8530 l0 -610 645 0 645 0 0 610 0 610 -645 0 -645 0 0 -610z"/>
<path d="M12446 9123 c-8 -20 -8 -1167 0 -1187 5 -14 31 -16 180 -16 l174 0 0
433 c0 395 -2 437 -19 488 -50 149 -124 227 -259 273 -60 21 -71 22 -76 9z"/>
<path d="M0 8110 l0 -250 1503 0 c1238 -1 1509 -3 1540 -14 89 -32 164 -112
188 -200 7 -26 12 -160 13 -356 l1 -315 28 -3 27 -3 0 685 0 685 -37 10 c-26
7 -564 11 -1650 11 l-1613 0 0 -250z"/>
<path d="M3458 7620 c-2 -338 -1 -623 1 -632 2 -14 13 -18 46 -18 26 0 44 5
47 13 2 6 1 260 -2 562 -5 547 -5 550 -28 595 -12 25 -31 56 -42 70 -19 25
-19 22 -22 -590z"/>
<path d="M6293 8137 c-60 -22 -117 -72 -148 -128 l-30 -54 -3 -492 -3 -493
241 0 240 0 -2 588 -3 587 -130 2 c-81 1 -142 -3 -162 -10z"/>
<path d="M6840 7560 l0 -590 279 0 c293 0 356 -6 428 -42 63 -32 146 -125 174
-195 22 -55 24 -73 27 -346 l3 -287 312 2 312 3 3 350 c2 193 0 653 -4 1023
l-6 672 -764 0 -764 0 0 -590z"/>
<path d="M8558 7225 c-2 -509 -3 -969 -3 -1022 l0 -98 118 -3 118 -3 14 35
c13 30 15 179 15 1026 l0 990 -130 0 -130 0 -2 -925z"/>
<path d="M9005 7238 c-3 -497 -5 -955 -3 -1018 l3 -115 118 -3 117 -3 0 908
c0 563 -4 921 -10 943 -18 65 -66 127 -122 159 -29 17 -63 31 -74 31 l-22 0
-7 -902z"/>
<path d="M10273 7726 c-68 -22 -130 -63 -168 -113 -66 -87 -65 -73 -63 -828
l3 -680 273 2 c315 3 340 9 412 90 73 83 70 55 68 838 l-3 700 -240 2 c-176 1
-251 -2 -282 -11z"/>
<path d="M10958 6961 l-6 -780 -24 -53 c-33 -71 -75 -118 -135 -148 -48 -25
-50 -25 -398 -30 l-350 -5 -3 -93 -3 -92 988 2 988 3 55 26 c100 47 159 125
179 234 13 68 14 519 4 1233 l-6 482 -642 0 -642 0 -5 -779z"/>
<path d="M12448 7738 c-2 -2 -5 -433 -8 -958 l-5 -955 -25 -49 c-35 -69 -100
-133 -168 -164 l-57 -27 -1072 -3 -1073 -2 0 -324 0 -325 263 -3 262 -3 46
-27 c57 -34 115 -97 141 -154 31 -72 38 -187 38 -691 l0 -482 818 -3 817 -3
61 -28 c77 -36 145 -104 180 -182 23 -49 28 -78 32 -162 l5 -103 48 0 49 0 0
2325 0 2325 -175 0 c-96 0 -176 -1 -177 -2z"/>
<path d="M0 7555 l0 -144 558 -3 557 -3 56 -26 c77 -36 134 -91 172 -163 l32
-61 5 -1320 5 -1320 528 -3 527 -2 0 1062 c0 1168 -2 1118 62 1225 38 64 94
113 164 145 44 21 67 23 237 26 l188 4 -3 266 c-3 255 -4 269 -26 309 -28 54
-78 104 -128 129 -38 18 -78 19 -1486 22 l-1448 2 0 -145z"/>
<path d="M7 7224 c-4 -4 -7 -613 -7 -1354 l0 -1347 323 -6 c177 -4 445 -7 595
-7 l272 0 -2 1248 -3 1247 -29 53 c-36 65 -82 107 -156 141 l-55 26 -465 3
c-256 2 -469 0 -473 -4z"/>
<path d="M2880 6756 c-93 -25 -172 -95 -219 -195 l-26 -56 -7 -665 c-5 -366
-7 -813 -5 -995 l2 -330 119 -3 c173 -4 251 29 310 131 46 78 48 118 41 1142
-4 528 -8 966 -10 973 -6 16 -143 15 -205 -2z"/>
<path d="M3245 6758 c-3 -7 -6 -499 -7 -1093 l-3 -1080 -26 -55 c-32 -69 -79
-116 -144 -146 -47 -22 -62 -24 -235 -24 -131 0 -190 -4 -198 -12 -14 -14 -16
-296 -5 -686 l6 -242 464 0 463 0 0 828 0 828 -54 17 c-71 23 -146 90 -177
159 l-24 53 -5 730 -5 730 -23 3 c-12 2 -24 -3 -27 -10z"/>
<path d="M3455 6748 c-3 -13 -4 -315 -3 -673 3 -612 4 -652 22 -685 26 -49 65
-100 77 -100 10 0 13 1437 3 1464 -4 11 -19 16 -50 16 -37 0 -44 -3 -49 -22z"/>
<path d="M3777 6763 c-4 -3 -7 -351 -7 -773 l0 -767 653 -7 c358 -4 666 -10
683 -14 l32 -7 -44 -50 -44 -49 -247 -7 c-137 -4 -425 -8 -640 -8 l-393 -1 0
-829 0 -829 183 -7 c100 -4 200 -5 222 -3 l40 3 5 440 5 440 26 55 c33 70 99
136 169 169 54 26 58 26 264 24 126 -2 213 -6 220 -13 8 -8 47 -119 42 -121 0
0 -69 -4 -152 -8 -133 -7 -158 -11 -210 -35 -71 -33 -127 -84 -162 -151 l-27
-50 0 -375 0 -375 255 -5 c291 -6 319 -12 398 -93 83 -86 86 -99 93 -390 3
-141 9 -260 13 -264 4 -4 308 -9 676 -11 525 -4 673 -2 685 8 13 11 15 68 16
399 1 212 4 433 8 491 l6 105 52 5 52 5 5 -80 c3 -44 8 -269 12 -500 3 -231 9
-424 14 -428 4 -5 145 -7 311 -5 258 4 311 7 352 22 58 22 151 104 179 159 45
89 46 107 50 637 l3 505 -60 3 c-83 4 -94 9 -64 29 13 9 38 29 56 46 17 16 42
35 55 41 13 6 24 21 26 33 2 12 16 36 32 53 16 17 46 61 67 98 l38 67 5 -110
c3 -60 9 -116 13 -122 9 -14 248 -18 320 -6 38 6 39 6 32 41 -23 123 -138 224
-285 252 -29 6 -55 12 -57 13 -2 2 5 30 15 63 l18 59 124 0 c115 0 129 -2 175
-27 28 -14 70 -47 94 -73 62 -68 83 -122 89 -233 l5 -93 381 3 c364 3 383 4
427 24 59 27 116 85 142 143 19 41 22 69 25 249 2 112 0 208 -4 212 -5 4 -272
11 -594 14 -322 4 -648 9 -726 12 l-140 6 -17 61 c-10 40 -13 65 -7 71 6 6
288 12 738 14 523 3 731 7 741 16 12 9 13 62 8 324 -3 173 -7 315 -9 317 -2 2
-141 8 -308 12 l-305 9 -64 34 c-37 20 -80 54 -104 82 l-40 48 -336 -2 -336
-3 -6 -393 c-4 -216 -9 -396 -13 -399 -3 -3 -11 7 -18 23 -19 44 -86 142 -105
152 -14 8 -17 44 -21 305 -3 162 -8 300 -11 305 -3 5 -177 11 -421 13 l-415 4
-9 -70 c-5 -38 -10 -71 -11 -73 -1 -1 -25 3 -52 9 l-50 12 -6 53 c-3 29 -8 58
-12 64 -10 16 -480 14 -493 -3 -6 -7 -12 -35 -14 -62 l-3 -49 -50 -12 c-27 -7
-52 -11 -54 -8 -3 3 -7 34 -9 69 -3 38 -9 66 -16 67 -6 1 -177 2 -381 3 l-370
0 -55 26 c-74 36 -130 86 -165 150 -26 48 -29 66 -36 189 -4 74 -8 249 -8 388
l-1 252 -578 0 c-318 0 -582 -3 -585 -7z"/>
<path d="M5122 6458 l3 -313 29 -53 c36 -65 82 -107 156 -141 55 -26 56 -26
351 -29 236 -2 297 0 300 10 2 7 2 198 -1 423 l-5 410 -418 3 -418 2 3 -312z"/>
<path d="M6107 6648 c-4 -66 -7 -258 -7 -425 l0 -303 244 0 c136 0 247 4 250
9 4 5 3 196 -1 425 l-6 416 -237 0 -237 0 -6 -122z"/>
<path d="M6835 6716 c-4 -31 -5 -133 -3 -228 3 -153 7 -179 27 -223 29 -65 74
-112 136 -141 49 -23 57 -24 313 -24 l264 0 -4 198 c-3 174 -6 203 -26 252
-30 76 -100 152 -170 187 -57 28 -57 28 -294 31 l-236 3 -7 -55z"/>
<path d="M6735 6068 c-3 -8 -5 -44 -3 -79 l3 -64 418 -3 c364 -2 417 0 417 13
0 8 -10 17 -22 20 -13 3 -165 6 -338 7 -353 3 -345 2 -427 81 -33 32 -44 37
-48 25z"/>
<path d="M7750 5935 c0 -13 39 -15 312 -13 238 2 312 6 316 16 3 9 -64 12
-312 12 -276 0 -316 -2 -316 -15z"/>
<path d="M8940 5903 c-19 -26 -61 -66 -93 -87 -40 -28 -54 -43 -47 -50 12 -12
351 -22 405 -12 l35 7 0 94 0 95 -133 0 -132 0 -35 -47z"/>
<path d="M9396 5864 c-4 -48 -3 -91 2 -96 4 -4 109 -7 233 -6 l224 3 0 90 0
90 -226 3 -226 2 -7 -86z"/>
<path d="M9395 5568 c-3 -7 -4 -153 -3 -323 l3 -310 233 -3 232 -2 -2 322 -3
323 -228 3 c-177 2 -229 0 -232 -10z"/>
<path d="M9395 4738 c-3 -7 -6 -137 -7 -288 -3 -266 -4 -276 -26 -320 -34 -65
-69 -99 -137 -131 l-60 -29 -443 0 c-345 0 -444 -3 -447 -12 -3 -7 -2 -654 2
-1438 l8 -1425 168 -3 c92 -1 168 -1 169 0 1 2 5 500 8 1108 l5 1105 22 47
c30 66 102 139 170 174 l58 29 485 5 485 5 0 590 0 590 -228 3 c-177 2 -229 0
-232 -10z"/>
<path d="M10042 4158 l3 -593 287 0 c157 0 290 4 294 8 5 4 9 211 9 460 0 403
-2 458 -18 509 -23 74 -83 149 -144 179 -45 22 -61 24 -241 27 l-192 3 2 -593z"/>
<path d="M1803 4353 l-423 -3 0 -673 c0 -371 3 -677 7 -680 3 -4 12 -2 20 4 8
8 13 35 13 83 0 39 5 88 10 108 16 55 69 128 121 165 82 58 121 63 526 63
l363 0 -2 468 -3 467 -105 0 c-58 0 -295 -1 -527 -2z"/>
<path d="M0 3677 l0 -674 586 -6 c322 -4 590 -4 595 -1 5 3 9 289 9 680 l0
674 -595 0 -595 0 0 -673z"/>
<path d="M7749 3969 c-8 -5 -9 -156 -4 -580 7 -518 6 -580 -9 -639 -31 -119
-103 -211 -205 -259 l-56 -26 -402 -3 -403 -3 0 -537 c0 -580 3 -608 53 -695
15 -25 44 -59 64 -77 73 -60 79 -60 718 -60 l582 0 6 273 c7 267 11 2597 5
2602 -7 6 -339 11 -349 4z"/>
<path d="M9033 3376 c-90 -29 -157 -89 -198 -177 l-25 -56 2 -1024 3 -1024
280 0 280 0 5 565 5 565 28 57 c36 73 119 150 192 177 50 19 78 21 278 21 122
0 340 3 485 7 l262 6 -2 206 -3 206 -260 5 -260 5 -63 34 c-70 38 -120 90
-154 160 -19 37 -24 69 -28 161 l-5 115 -390 2 c-298 1 -400 -1 -432 -11z"/>
<path d="M10043 3374 c-9 -24 23 -114 57 -160 16 -23 47 -53 69 -68 73 -51
113 -59 294 -64 l167 -4 0 156 0 156 -290 0 c-258 0 -291 -2 -297 -16z"/>
<path d="M10790 3242 c0 -98 4 -153 11 -158 6 -3 391 -3 856 1 l845 8 -5 38
c-13 96 -94 191 -195 229 -54 20 -78 21 -784 27 l-728 6 0 -151z"/>
<path d="M2637 3253 c-4 -3 -7 -64 -7 -135 l0 -129 318 3 317 3 67 32 c37 17
87 50 112 73 45 41 100 135 90 151 -6 10 -887 12 -897 2z"/>
<path d="M3776 3248 c-3 -7 -7 -47 -10 -88 -14 -172 -131 -310 -301 -354 -48
-13 -124 -16 -402 -16 -383 0 -382 0 -295 -63 94 -69 74 -68 797 -65 l650 3 0
295 0 295 -218 3 c-169 2 -218 0 -221 -10z"/>
<path d="M4398 3254 c-5 -4 -8 -139 -8 -301 l0 -293 294 0 294 0 7 125 c4 68
4 153 1 188 -13 118 -69 202 -170 255 -49 25 -59 27 -231 30 -99 2 -183 0
-187 -4z"/>
<path d="M1789 3236 c-55 -19 -107 -54 -134 -90 -33 -43 -68 -124 -61 -142 5
-12 67 -14 423 -12 l418 3 3 128 3 127 -308 0 c-226 -1 -318 -4 -344 -14z"/>
<path d="M10800 2902 c-6 -2 -10 -81 -10 -208 l0 -204 858 2 857 3 0 200 0
200 -848 5 c-466 3 -852 4 -857 2z"/>
<path d="M12700 2695 l0 -205 50 0 50 0 0 205 0 205 -50 0 -50 0 0 -205z"/>
<path d="M1595 2778 c-3 -7 -4 -198 -3 -423 l3 -410 1150 -5 1150 -5 48 -25
c58 -29 112 -86 141 -149 21 -46 21 -52 24 -903 l2 -858 50 0 50 0 0 1230 0
1230 -752 2 -753 3 -53 28 c-102 53 -169 138 -197 246 l-11 46 -422 3 c-333 2
-424 0 -427 -10z"/>
<path d="M0 2681 l0 -99 404 -7 c222 -4 437 -4 477 0 121 11 207 59 260 143
16 25 29 50 29 54 0 4 -263 8 -585 8 l-585 0 0 -99z"/>
<path d="M1378 2715 c-11 -129 -86 -236 -208 -294 l-55 -26 -558 -3 -557 -3 0
-236 0 -235 22 8 c13 5 330 10 706 11 l682 3 2 325 c4 545 5 509 -13 513 -13
2 -17 -9 -21 -63z"/>
<path d="M4395 2451 c-3 -6 -2 -559 1 -1230 l7 -1221 289 0 288 0 0 1230 0
1230 -289 0 c-170 0 -292 -4 -296 -9z"/>
<path d="M5150 1230 l0 -1230 1470 0 1470 0 0 455 0 454 -677 3 -678 3 -47 27
c-60 36 -112 98 -140 167 -23 56 -23 58 -26 704 l-3 647 -684 0 -685 0 0
-1230z"/>
<path d="M9820 2296 c-108 -23 -180 -82 -229 -186 l-25 -55 3 -475 c1 -261 6
-479 10 -483 5 -5 197 -7 427 -5 408 3 420 4 460 25 51 27 110 92 138 152 21
45 21 56 21 541 l0 495 -375 2 c-260 1 -392 -2 -430 -11z"/>
<path d="M10788 1733 c-3 -557 -3 -569 -25 -621 -28 -70 -83 -135 -141 -169
l-47 -28 -500 -5 -500 -5 -3 -453 -2 -452 1442 0 c1143 0 1448 3 1468 13 l25
13 0 1134 0 1135 -857 3 -857 2 -3 -567z"/>
<path d="M12700 1224 c0 -724 3 -1073 10 -1069 15 9 49 79 71 144 18 53 19
106 19 1029 l0 972 -50 0 -50 0 0 -1076z"/>
<path d="M182 1765 c-62 -19 -107 -57 -147 -126 l-35 -60 0 -612 c0 -572 2
-616 19 -668 52 -153 129 -233 270 -278 62 -20 86 -21 593 -21 l528 0 0 890 0
890 -592 -1 c-465 0 -602 -3 -636 -14z"/>
<path d="M1590 890 l0 -890 1179 0 1178 0 8 752 c5 540 4 767 -4 801 -23 99
-77 168 -161 206 -44 20 -61 21 -1122 21 l-1078 0 0 -890z"/>
<path d="M8287 903 c-4 -3 -7 -208 -7 -455 l0 -448 170 0 170 0 0 455 0 455
-163 0 c-90 0 -167 -3 -170 -7z"/>
<path d="M8817 903 c-4 -3 -7 -208 -7 -455 l0 -448 285 0 285 0 -2 453 -3 452
-276 3 c-151 1 -278 -1 -282 -5z"/>
</g>
</svg>
