<svg width="220" height="81" viewBox="0 0 220 81" fill="none" xmlns="http://www.w3.org/2000/svg">
<rect y="0.440918" width="219.889" height="80.4576" rx="20" fill="#F1BE48"/>
<path d="M57.7377 54.6855V29.2675H61.2709V51.9609H72.6791V54.6855H57.7377ZM79.9565 49.4297C79.9565 51.5039 81.4272 52.541 84.3686 52.541C87.31 52.541 88.7807 51.5039 88.7807 49.4297V41.3613C88.7807 39.2754 87.31 38.2324 84.3686 38.2324C81.4272 38.2324 79.9565 39.2754 79.9565 41.3613V49.4297ZM92.0854 49.1484C92.0854 50.9765 91.4584 52.4238 90.2045 53.4902C88.9623 54.5449 87.0112 55.0722 84.351 55.0722C81.6909 55.0722 79.7397 54.5449 78.4975 53.4902C77.267 52.4355 76.6518 50.9883 76.6518 49.1484V41.6425C76.6518 39.8027 77.267 38.3554 78.4975 37.3008C79.7397 36.2343 81.6909 35.7011 84.351 35.7011C87.0112 35.7011 88.9623 36.2343 90.2045 37.3008C91.4584 38.3672 92.0854 39.8144 92.0854 41.6425V49.1484ZM99.8725 58.6758C101.091 59.1211 102.585 59.3437 104.355 59.3437C106.124 59.3437 107.361 59.0097 108.064 58.3418C108.779 57.6738 109.136 56.6367 109.136 55.2304V52.6465C108.656 53.0918 107.935 53.4258 106.974 53.6484C106.025 53.8711 105.152 53.9824 104.355 53.9824C99.644 53.9824 97.2885 51.9961 97.2885 48.0234V41.8886C97.2885 39.955 97.8745 38.4433 99.0463 37.3535C100.23 36.2519 101.999 35.7011 104.355 35.7011C105.292 35.7011 106.253 35.9004 107.238 36.2988C108.234 36.6855 108.867 37.1015 109.136 37.5468V36.0527H112.441V54.2461C112.441 56.4843 111.849 58.3125 110.665 59.7304C109.494 61.1484 107.595 61.8574 104.97 61.8574C102.345 61.8574 100.4 61.623 99.1342 61.1543L99.8725 58.6758ZM109.136 40.7988C109.136 39.0879 107.712 38.2324 104.865 38.2324C102.017 38.2324 100.593 39.334 100.593 41.5371V48.5332C100.593 50.4785 102.017 51.4511 104.865 51.4511C106.54 51.4511 107.964 50.9824 109.136 50.0449V40.7988ZM127.874 54.6855V52.0488H132.726V31.8867H127.874V29.2675H141.093V31.8867H136.259V52.0488H141.093V54.6855H127.874ZM159.585 40.957C159.585 39.1406 158.197 38.2324 155.419 38.2324C154.048 38.2324 152.97 38.5254 152.185 39.1113C151.4 39.6972 151.007 40.4648 151.007 41.414V54.6855H147.703V36.0527H151.007V37.8633C152.249 36.4218 154.089 35.7011 156.527 35.7011C159.691 35.7011 161.695 36.8144 162.539 39.041C162.773 39.6738 162.89 40.3769 162.89 41.1504V54.6855H159.585V40.957Z" fill="#524727"/>
</svg>
