<?xml version="1.0" standalone="no"?>
<!DOCTYPE svg PUBLIC "-//W3C//DTD SVG 20010904//EN"
 "http://www.w3.org/TR/2001/REC-SVG-20010904/DTD/svg10.dtd">
<svg version="1.0" xmlns="http://www.w3.org/2000/svg"
 width="1280.000000pt" height="853.000000pt" viewBox="0 0 1280.000000 853.000000"
 preserveAspectRatio="xMidYMid meet">
<g transform="translate(0.000000,853.000000) scale(0.100000,-0.100000)"
fill="#000000" stroke="none">
<path d="M6423 6620 c-71 -28 -146 -98 -180 -168 -24 -49 -28 -69 -28 -142 0
-72 4 -94 28 -145 26 -56 28 -68 25 -169 l-3 -109 -45 -24 c-56 -30 -73 -47
-103 -103 l-24 -45 -271 -3 -272 -2 -15 37 c-20 48 -59 89 -107 114 l-38 19 0
133 c0 72 -4 138 -9 145 -5 8 -21 12 -37 10 l-29 -3 -5 -137 c-3 -75 -7 -138
-10 -141 -12 -11 -109 -46 -145 -52 -53 -9 -112 -40 -162 -86 l-43 -39 -538 0
-539 0 -18 39 c-20 46 -79 106 -118 120 -36 14 -118 14 -154 0 -39 -14 -98
-74 -118 -120 l-18 -39 -68 0 c-59 0 -68 -3 -74 -20 -3 -11 -3 -29 0 -40 6
-17 15 -20 76 -20 68 0 69 0 82 -32 21 -51 62 -94 111 -117 49 -23 61 -45 52
-97 -6 -27 -14 -37 -49 -52 -47 -21 -103 -79 -113 -117 -8 -34 -32 -45 -97
-45 -57 0 -73 -12 -61 -45 5 -11 21 -15 61 -15 65 0 89 -11 97 -45 10 -37 66
-96 113 -117 31 -14 43 -25 48 -48 12 -54 -3 -89 -43 -106 -174 -72 -173 -316
0 -389 l38 -15 0 -70 0 -69 -60 -32 c-34 -18 -75 -48 -92 -68 l-32 -36 -471 0
c-385 0 -475 -3 -488 -14 -15 -11 -17 -36 -17 -166 0 -85 -3 -160 -6 -169 -5
-12 -20 -16 -59 -16 -82 0 -85 6 -85 170 0 116 -2 139 -16 144 -9 3 -83 6
-165 6 -174 0 -158 -14 -162 145 l-2 100 -30 6 c-16 4 -459 7 -982 8 l-953 1
0 -95 0 -95 892 -2 893 -3 0 -30 0 -30 -893 -3 -892 -2 0 -85 0 -85 783 0
c431 0 831 -3 890 -6 l105 -7 7 -51 c4 -28 9 -204 11 -391 4 -303 6 -341 21
-352 13 -10 93 -13 320 -13 195 0 303 -4 303 -10 0 -7 -413 -10 -1220 -10
l-1220 0 0 -98 0 -99 332 -6 c182 -4 578 -7 879 -7 l549 0 6 -24 c3 -13 4 -91
2 -174 l-3 -151 -43 -36 c-128 -110 -109 -285 38 -360 84 -43 166 -27 238 44
39 40 72 109 72 152 0 42 -47 127 -92 164 l-33 28 -3 155 c-2 85 -1 165 2 178
l6 24 318 1 c174 1 331 4 347 8 l30 6 3 85 c3 132 2 130 72 130 54 0 60 -2 80
-30 33 -46 116 -90 171 -90 79 0 169 72 204 164 21 56 15 96 -25 159 -41 65
-98 100 -169 105 -71 5 -106 -11 -177 -80 -47 -46 -54 -49 -95 -46 l-44 3 -3
55 c-2 30 -1 101 3 158 l7 102 220 0 221 0 51 -48 c62 -58 129 -87 182 -78 71
14 184 150 184 224 0 32 -42 112 -77 144 -87 83 -198 75 -289 -19 l-51 -53
-224 2 -224 3 -3 77 c-3 76 -2 78 23 84 15 4 188 4 386 2 l359 -5 40 -45 c26
-30 59 -54 95 -69 l55 -23 0 -113 0 -113 -38 -25 c-50 -33 -76 -79 -76 -136 0
-56 30 -108 78 -134 39 -21 46 -38 46 -112 0 -69 -5 -80 -54 -102 -49 -22 -87
-61 -113 -116 l-18 -40 -65 -3 c-77 -4 -98 -22 -64 -56 10 -11 34 -16 74 -16
l59 0 19 -42 c23 -52 64 -91 114 -112 30 -13 38 -23 43 -50 10 -52 -2 -74 -56
-101 -47 -24 -109 -93 -109 -120 0 -18 -24 -25 -90 -25 -50 0 -60 -3 -65 -20
-3 -11 -3 -29 0 -40 6 -17 15 -20 73 -20 l67 0 28 -54 c38 -73 90 -109 167
-114 32 -2 74 1 93 7 43 15 99 69 122 121 l18 40 625 -2 625 -3 24 -45 c27
-53 73 -95 120 -111 40 -13 42 -21 46 -174 2 -117 3 -120 25 -123 46 -7 52 10
52 154 l0 134 38 19 c48 25 87 66 107 114 l16 38 117 -3 117 -3 3 -132 3 -132
-61 -27 c-77 -34 -151 -113 -176 -186 -56 -161 15 -342 163 -414 78 -39 186
-44 265 -14 75 28 150 96 185 168 38 78 40 200 4 280 -29 65 -123 154 -183
174 l-43 15 0 134 0 134 74 0 74 0 24 -45 c30 -56 47 -73 103 -103 l45 -24 5
-139 5 -139 35 0 35 0 3 141 3 141 40 18 c46 21 93 70 114 120 l14 35 630 0
630 0 19 -43 c19 -43 66 -89 120 -119 l31 -17 3 -138 3 -138 35 0 35 0 5 139
5 139 45 24 c52 27 85 62 107 115 l15 38 619 0 619 0 6 25 c14 58 50 55 -621
55 l-616 0 -17 31 c-29 55 -71 96 -117 118 l-45 21 0 54 c0 51 2 54 32 67 47
20 102 72 123 119 l18 40 387 0 387 0 27 -41 c58 -87 163 -100 239 -29 37 34
41 42 44 96 5 71 -15 110 -77 149 l-40 25 0 358 c0 196 4 362 8 368 4 6 18 15
32 19 36 11 91 48 124 84 l30 31 471 0 c391 0 474 2 491 14 17 13 19 31 24
183 l5 168 47 3 c86 6 88 2 88 -157 0 -103 3 -141 13 -150 8 -6 75 -12 168
-13 l154 -3 5 -120 c5 -117 5 -119 30 -126 14 -4 456 -7 983 -8 l957 -1 0 90
0 90 -207 1 c-115 1 -516 5 -893 8 l-685 6 0 30 0 30 893 3 892 2 0 85 0 85
-884 0 c-697 0 -887 3 -893 13 -4 6 -10 184 -11 395 -4 376 -4 382 -25 397
-18 12 -72 15 -325 15 -200 0 -301 3 -297 10 4 7 422 10 1221 10 l1214 0 0
100 0 100 -857 0 c-472 0 -868 3 -880 6 -23 6 -23 8 -23 179 l0 173 39 31 c44
35 91 120 91 164 0 83 -51 162 -131 202 -61 31 -107 32 -168 0 -70 -35 -120
-99 -136 -172 -9 -44 31 -131 85 -184 l40 -40 0 -169 c0 -124 -3 -171 -12
-177 -7 -4 -159 -8 -338 -8 -179 0 -333 -4 -342 -9 -15 -7 -18 -23 -18 -105 0
-62 -4 -101 -12 -109 -7 -7 -29 -12 -50 -12 -32 0 -47 8 -86 44 -59 55 -120
86 -170 86 -96 0 -212 -120 -212 -220 1 -102 91 -199 194 -208 77 -6 123 12
183 74 46 47 58 54 92 54 21 0 44 -6 50 -14 12 -15 10 -136 -4 -253 l-7 -53
-223 0 -224 0 -21 28 c-52 66 -150 109 -210 92 -41 -12 -124 -90 -151 -142
-48 -94 5 -217 113 -262 81 -34 165 -10 235 68 l42 46 218 0 c157 0 222 -3
231 -12 16 -16 16 -130 0 -146 -9 -9 -108 -12 -384 -12 l-373 0 -47 50 c-29
30 -64 56 -93 66 -25 10 -52 22 -58 27 -10 7 -13 97 -13 387 l0 377 37 24
c102 66 113 187 24 262 -65 54 -172 38 -221 -34 -42 -62 -23 -59 -419 -59
-201 0 -371 4 -377 8 -6 4 -21 25 -32 48 -24 47 -74 94 -120 113 -30 13 -32
16 -32 68 0 52 1 55 35 68 50 21 99 68 120 114 l18 41 621 2 621 3 0 35 0 35
-620 5 -620 5 -17 35 c-24 50 -83 107 -123 120 l-34 11 -3 142 -3 142 -35 0
-35 0 -3 -138 -3 -138 -31 -17 c-54 -30 -101 -76 -120 -120 l-19 -42 -577 2
-577 3 -3 132 -3 131 58 27 c76 34 135 93 169 169 23 50 28 75 28 138 0 65 -5
86 -33 142 -35 71 -87 123 -160 158 -66 32 -188 35 -258 8z m237 -186 c63 -72
44 -179 -40 -222 -129 -67 -263 67 -196 195 45 87 170 101 236 27z m-232 -439
l42 -17 0 -74 c0 -41 -3 -74 -7 -74 -4 0 -31 12 -60 28 l-53 27 0 61 c0 62 6
78 24 70 6 -2 30 -12 54 -21z m4604 -183 c14 -8 36 -33 48 -55 44 -77 9 -171
-75 -202 -100 -39 -195 27 -195 135 0 70 30 112 97 136 42 15 84 10 125 -14z
m-6138 -292 c1 -95 4 -110 29 -158 45 -85 104 -135 210 -176 l37 -15 0 -140 0
-140 63 -3 62 -3 0 -120 0 -120 -225 0 -225 0 -3 167 -2 167 40 26 c99 63 109
184 21 258 -62 52 -171 38 -217 -28 -49 -70 -15 -65 -420 -65 -218 0 -373 4
-384 10 -10 5 -21 21 -24 35 -9 37 -66 96 -112 117 -45 19 -54 33 -54 79 0 30
30 69 53 69 24 0 85 60 107 105 l22 45 511 -2 511 -3 0 -105z m1212 85 c32
-50 19 -55 -141 -55 l-145 0 0 -239 c0 -132 -3 -246 -6 -255 -5 -14 -34 -16
-215 -16 l-209 0 0 88 0 87 48 41 c87 75 131 193 113 304 -5 30 -7 58 -4 63 2
4 125 7 273 7 l270 0 16 -25z m1689 -7 c21 -51 53 -87 98 -110 52 -26 57 -33
57 -86 0 -38 -4 -45 -31 -60 -55 -29 -102 -76 -121 -118 -10 -23 -25 -45 -34
-48 -20 -8 -721 -8 -750 0 -11 3 -29 21 -39 40 -39 73 -142 101 -216 58 -37
-21 -79 -92 -79 -133 0 -44 40 -110 81 -134 21 -12 40 -31 43 -42 12 -42 6
-291 -7 -308 -11 -16 -34 -17 -227 -15 l-215 3 0 375 0 375 130 5 130 5 3 100
c1 55 4 106 7 113 3 9 129 12 580 12 l576 0 14 -32z m-2646 -17 c17 -38 68
-87 114 -106 32 -13 37 -19 37 -49 0 -40 -15 -55 -63 -63 -25 -4 -49 1 -81 16
-78 38 -107 136 -61 207 21 32 40 30 54 -5z m1116 -561 l0 -375 -139 -3 c-93
-2 -143 1 -152 9 -11 9 -14 76 -14 364 0 195 3 361 6 369 6 14 26 16 153 14
l146 -3 0 -375z m-1631 84 c9 -3 25 -22 37 -41 12 -19 39 -45 60 -59 l39 -25
-2 -167 -3 -167 -172 -3 c-170 -2 -172 -2 -184 20 -37 74 -107 107 -181 87
-38 -10 -64 -31 -122 -100 -14 -16 -30 -19 -112 -19 -105 0 -129 7 -138 45 -9
37 -66 96 -112 117 -45 19 -54 33 -54 79 0 42 15 66 45 73 36 9 100 70 115
109 23 59 13 57 406 57 199 0 369 -3 378 -6z m3131 0 c8 -4 22 -21 29 -38 19
-46 71 -101 108 -117 43 -17 48 -25 48 -82 0 -44 -3 -49 -31 -65 -55 -30 -102
-76 -121 -120 l-19 -43 -87 3 -87 3 -6 85 c-10 138 -71 235 -184 291 -43 21
-64 24 -150 24 -92 0 -104 -2 -153 -29 -111 -62 -173 -165 -175 -294 -2 -73
-3 -77 -26 -80 -13 -2 -28 2 -32 10 -5 7 -9 81 -9 165 0 129 2 154 16 165 22
17 95 90 112 112 11 14 52 16 382 16 202 0 376 -3 385 -6z m1239 -42 c17 -24
46 -52 64 -62 l32 -20 -2 -168 -3 -167 -167 -3 c-126 -2 -169 1 -177 10 -59
73 -77 89 -112 98 -67 18 -135 -9 -175 -70 l-27 -40 -114 0 -114 0 -17 31
c-30 55 -76 102 -119 121 l-43 19 0 59 0 59 43 19 c50 23 90 64 111 114 9 20
21 39 28 41 7 3 181 5 387 4 l374 -2 31 -43z m904 -119 c59 -43 79 -131 42
-191 -32 -52 -76 -74 -138 -69 -45 3 -59 9 -89 40 -31 30 -37 44 -40 89 -5 62
17 106 69 139 41 25 116 21 156 -8z m-4100 -65 c18 -18 16 -212 -2 -227 -9 -8
-74 -11 -212 -9 l-199 3 -3 109 c-1 61 0 116 2 123 7 18 396 19 414 1z m1536
-28 c39 -14 31 -34 -18 -48 -54 -14 -110 -61 -137 -114 -17 -33 -23 -37 -35
-28 -18 16 -18 83 0 118 16 30 53 66 76 75 25 9 87 8 114 -3z m3470 -133 c17
-13 18 -32 14 -303 -3 -159 -8 -297 -12 -306 -7 -14 -21 -18 -70 -18 -35 0
-67 5 -74 12 -8 8 -12 55 -12 144 0 107 -3 136 -16 148 -12 13 -41 16 -148 16
l-133 0 -7 77 c-10 126 -8 231 7 236 6 3 107 6 223 6 159 1 215 -2 228 -12z
m-6689 -187 c14 -22 43 -51 65 -65 l40 -25 0 -116 0 -115 -34 -14 c-48 -20
-94 -62 -116 -106 -22 -41 -27 -130 -11 -172 16 -41 69 -94 116 -116 l45 -21
0 -115 0 -115 -40 -25 c-22 -14 -51 -43 -65 -65 l-25 -40 -133 0 c-72 0 -137
4 -143 8 -6 4 -19 22 -30 40 -10 18 -35 44 -56 57 l-38 25 0 118 0 118 52 34
c32 22 64 54 83 84 62 102 29 222 -83 296 l-52 34 0 78 0 77 43 19 c50 23 90
64 111 114 9 20 21 38 28 41 7 3 59 6 115 6 l103 1 25 -40z m643 0 c2 -22 -6
-29 -63 -59 -115 -59 -179 -161 -180 -286 0 -38 4 -86 8 -106 7 -30 6 -37 -9
-43 -27 -10 -52 2 -62 33 -15 43 -67 97 -117 120 l-45 21 0 114 0 113 41 27
c22 15 50 43 61 62 l20 34 172 -2 171 -3 3 -25z m527 -125 l0 -150 -55 0 -55
0 -27 57 c-50 105 -150 179 -261 194 -50 7 -62 16 -53 40 5 12 40 14 228 12
l223 -3 0 -150z m519 139 c9 -23 7 -267 -2 -282 -7 -9 -56 -12 -213 -10 l-204
3 -3 140 c-1 76 0 145 2 152 4 10 51 13 210 13 177 0 205 -2 210 -16z m451
-139 l0 -150 -144 -3 c-109 -2 -146 1 -153 10 -9 15 -11 259 -2 282 6 14 26
16 153 14 l146 -3 0 -150z m535 136 c11 -21 14 -231 4 -269 l-6 -22 -222 2
-221 3 -3 140 c-1 76 0 145 2 152 4 10 53 13 220 13 203 0 216 -1 226 -19z
m219 -39 c31 -32 78 -69 104 -81 l48 -23 -3 -72 -3 -71 -139 -3 c-105 -2 -141
1 -148 10 -9 15 -11 259 -2 282 4 11 19 16 47 16 36 0 46 -6 96 -58z m779 16
c19 -44 66 -90 121 -120 l32 -18 -3 -87 -3 -87 -77 -12 c-92 -14 -163 -50
-219 -111 -22 -24 -45 -43 -50 -41 -4 2 -23 27 -41 57 -24 40 -45 61 -78 78
-71 36 -71 36 -68 126 l3 82 40 18 c55 26 94 64 117 115 l19 42 94 0 94 0 19
-42z m662 6 c13 -19 40 -46 61 -60 l39 -24 0 -115 0 -115 -42 -21 c-57 -28
-86 -56 -110 -104 -12 -22 -26 -43 -32 -47 -6 -4 -48 -8 -94 -8 l-82 0 -53 54
c-28 29 -67 61 -84 70 l-33 17 0 109 0 110 38 15 c48 21 95 67 117 116 l18 39
118 0 117 0 22 -36z m638 -141 l2 -172 -47 -25 c-57 -29 -87 -58 -107 -107
-16 -39 -32 -49 -74 -49 -47 0 -70 11 -76 36 -10 38 -76 105 -123 125 l-43 18
0 114 0 114 37 24 c21 13 49 41 62 62 l25 37 170 -2 171 -3 3 -172z m468 72
c89 -58 84 -203 -8 -251 -128 -66 -266 69 -200 196 37 71 142 98 208 55z
m-2226 -156 c0 -51 -4 -78 -10 -74 -18 11 -12 155 7 155 2 0 3 -36 3 -81z
m-2403 -25 c35 -23 63 -74 63 -116 0 -46 -16 -49 -51 -12 -13 15 -43 35 -66
45 -40 17 -43 21 -43 57 0 21 3 42 7 46 11 10 62 -1 90 -20z m-169 -46 c-2
-13 -11 -24 -20 -26 -21 -4 -24 18 -6 36 19 19 30 14 26 -10z m-1030 -116 c61
-44 78 -136 37 -198 -58 -89 -200 -84 -250 9 -25 47 -17 128 16 164 52 56 138
67 197 25z m2076 -28 c8 -21 8 -20 -10 -38 -12 -13 -39 -16 -125 -16 -96 0
-111 2 -129 20 -44 44 -29 50 126 50 111 0 133 -2 138 -16z m296 -3 c0 -32
-28 -51 -74 -51 -53 0 -81 19 -72 48 7 20 14 22 77 22 61 0 69 -2 69 -19z
m530 -6 c0 -28 -25 -44 -42 -27 -15 15 1 52 23 52 14 0 19 -7 19 -25z m538 -2
c-3 -30 -25 -42 -34 -19 -9 22 2 46 21 46 12 0 15 -8 13 -27z m-2592 -121 c6
-4 21 -26 32 -48 24 -47 69 -88 118 -109 l34 -14 0 -145 0 -145 -60 -32 c-72
-38 -113 -83 -149 -159 -21 -45 -26 -69 -26 -135 1 -92 22 -150 81 -222 23
-28 33 -48 27 -54 -5 -5 -162 -8 -389 -7 l-379 3 -18 40 c-26 55 -64 94 -113
116 -49 22 -54 33 -54 102 0 74 7 91 46 112 19 10 44 35 56 54 12 20 27 39 32
43 6 4 68 8 139 8 138 0 135 1 181 -65 27 -40 98 -68 147 -60 47 8 101 51 119
95 15 37 8 111 -14 145 -9 14 -34 36 -56 50 l-40 25 0 116 0 115 35 15 c50 21
112 80 125 119 6 19 19 36 28 38 28 8 86 7 98 -1z m1218 -8 c14 -13 16 -57 16
-329 0 -172 -3 -320 -6 -329 -5 -14 -34 -16 -215 -16 l-209 0 0 260 c0 143 4
260 8 260 27 0 102 65 126 109 14 27 32 52 39 54 6 3 60 6 119 6 84 1 110 -2
122 -15z m282 8 c6 -4 20 -25 32 -47 24 -48 53 -76 110 -104 l42 -21 0 -199 0
-198 -32 -56 -33 -57 -120 3 -120 2 -3 330 c-2 301 -1 331 15 343 18 13 91 16
109 4z m1845 -2 c17 -10 19 -22 19 -109 0 -117 -6 -126 -80 -119 -83 8 -136
74 -127 157 7 62 32 81 109 81 33 0 68 -5 79 -10z m445 2 c6 -4 20 -25 32 -47
24 -48 53 -76 110 -104 l42 -21 0 -116 0 -115 -35 -21 c-20 -11 -49 -40 -66
-64 l-30 -44 -132 0 c-73 0 -137 4 -143 8 -6 4 -19 22 -30 40 -10 18 -34 42
-51 54 -39 23 -41 33 -12 49 44 23 111 95 137 144 20 40 26 69 30 140 3 51 9
93 16 97 6 4 36 8 66 8 30 0 60 -4 66 -8z m540 0 c6 -4 21 -26 33 -49 25 -49
78 -106 121 -128 l30 -16 0 -374 0 -375 -40 -25 c-22 -14 -48 -41 -57 -61 -9
-19 -26 -37 -38 -40 -11 -2 -186 -3 -390 -2 l-370 3 -18 40 c-26 55 -64 94
-114 117 l-43 19 0 84 0 85 40 25 c22 14 48 41 57 60 9 18 25 36 37 39 12 3
74 6 139 6 116 0 119 -1 140 -26 52 -63 76 -83 115 -94 100 -26 192 47 192
152 0 54 -27 100 -80 133 l-40 25 0 115 0 116 43 18 c40 17 117 90 117 111 0
6 9 19 20 30 20 20 83 28 106 12z m-3771 -39 c21 -50 51 -80 108 -109 l47 -24
0 -255 0 -255 -57 0 -58 0 -29 55 c-49 93 -142 156 -256 172 l-55 8 -3 138 -3
137 43 19 c24 10 50 26 58 35 7 10 34 28 59 41 25 13 60 35 76 49 41 34 52 32
70 -11z m1496 10 c18 -49 59 -93 109 -118 32 -16 52 -33 55 -48 9 -33 2 -374
-8 -383 -4 -4 -22 7 -41 25 -19 18 -62 47 -97 64 l-64 32 -3 215 c-1 118 0
220 2 227 9 23 36 14 47 -14z m-4501 -172 c0 -114 3 -143 16 -155 12 -13 41
-16 149 -16 l133 0 7 -57 c10 -83 11 -225 3 -245 -7 -16 -27 -18 -227 -18
-189 0 -222 2 -236 16 -14 15 -15 45 -11 263 2 135 7 270 11 299 l7 52 74 0
74 0 0 -139z m4850 59 c0 -19 7 -20 159 -20 88 0 166 -3 175 -6 13 -5 16 -23
16 -95 l0 -89 -37 -15 c-111 -46 -163 -175 -114 -280 49 -106 172 -153 276
-106 46 20 102 79 111 116 3 14 14 30 24 35 22 12 210 13 226 2 6 -4 19 -22
30 -40 10 -18 35 -44 56 -57 l38 -25 0 -78 c0 -42 -4 -81 -8 -87 -4 -5 -24
-18 -44 -29 -46 -23 -71 -49 -101 -106 l-24 -45 -358 0 -358 0 -24 45 c-30 57
-56 83 -113 113 l-45 24 -2 349 c-2 192 0 354 5 359 9 13 83 52 100 54 6 1 12
-8 12 -19z m-546 -6 c9 -23 7 -297 -2 -311 -4 -6 -20 -17 -35 -22 -59 -23 -58
-26 -55 151 l3 163 35 17 c44 21 47 21 54 2z m-3049 -24 c92 -57 83 -203 -15
-252 -88 -45 -191 8 -206 104 -4 20 -4 48 0 62 8 31 53 85 80 96 39 16 107 11
141 -10z m4199 -52 c50 -102 126 -163 234 -191 26 -6 49 -16 50 -22 5 -18 -42
-85 -63 -90 -11 -3 -65 -5 -120 -3 l-100 3 -18 40 c-26 55 -63 93 -117 119
l-45 21 -3 79 c-4 101 2 108 87 104 l66 -3 29 -57z m-4547 -435 c69 -32 97
-113 65 -187 -52 -117 -212 -117 -264 0 -56 127 72 248 199 187z m1924 -16
c90 -60 89 -185 -1 -245 -26 -17 -45 -22 -80 -20 l-45 3 -3 134 c-2 101 1 136
10 143 25 15 85 8 119 -15z m1643 9 c70 -29 105 -127 69 -196 -71 -136 -275
-88 -275 65 0 108 103 174 206 131z m-1844 -131 c0 -14 -4 -25 -10 -25 -5 0
-10 11 -10 25 0 14 5 25 10 25 6 0 10 -11 10 -25z m528 -332 l2 -293 -45 -21
c-46 -22 -88 -63 -117 -118 l-17 -31 -615 0 c-338 0 -621 3 -630 6 -9 3 -16
12 -16 19 0 27 -62 96 -109 119 -50 26 -61 40 -61 82 0 37 16 61 45 68 38 10
96 66 117 114 l19 42 389 0 389 0 16 -29 c19 -38 70 -77 112 -86 73 -15 165
44 180 116 4 22 16 35 47 51 88 45 150 114 177 197 17 54 27 62 73 59 l41 -3
3 -292z m890 285 c7 -7 12 -20 12 -29 0 -10 16 -48 35 -85 l35 -68 -2 -165 -3
-166 -235 -5 -235 -5 -5 -110 -5 -110 -117 -3 -116 -3 -29 53 c-21 40 -40 60
-80 83 l-52 30 -1 291 c0 160 3 294 7 297 3 4 180 7 393 7 287 0 389 -3 398
-12z m213 -258 c5 0 18 -9 29 -20 17 -17 20 -33 20 -117 0 -54 -4 -104 -9
-111 -5 -8 -23 -12 -47 -10 l-39 3 -3 119 c-3 131 0 151 24 142 9 -3 20 -6 25
-6z m238 -60 c6 -22 26 -57 44 -77 103 -118 291 -86 352 60 l15 37 365 0 364
0 19 -42 c19 -44 66 -90 121 -120 27 -15 31 -22 31 -60 0 -53 -5 -60 -57 -86
-45 -23 -77 -59 -98 -109 l-14 -33 -630 0 -630 0 -16 30 c-21 40 -13 50 41 50
l44 0 0 188 c0 104 3 192 7 195 16 16 31 4 42 -33z m-4750 -350 c71 -20 121
-102 106 -172 -9 -41 -59 -94 -101 -108 -106 -35 -214 69 -185 178 12 44 55
89 97 102 39 11 44 11 83 0z m4227 -15 c4 -8 -1 -27 -10 -41 -16 -23 -21 -25
-89 -22 -67 3 -72 5 -75 26 -7 47 2 52 88 52 63 0 82 -3 86 -15z m-206 -657
c102 -53 106 -178 8 -251 -34 -25 -101 -27 -146 -3 -100 52 -95 207 8 258 46
24 77 23 130 -4z"/>
<path d="M4237 6163 c-13 -12 -7 -33 8 -33 8 0 15 9 15 20 0 20 -11 26 -23 13z"/>
<path d="M1493 5560 c-73 -42 -106 -94 -111 -174 -5 -77 17 -127 80 -181 l43
-36 3 -144 c2 -92 -1 -151 -8 -164 -11 -21 -13 -21 -755 -21 l-745 0 0 -90 0
-90 840 0 840 0 0 250 0 251 44 47 c55 59 86 120 86 170 0 60 -53 140 -120
179 -72 44 -125 44 -197 3z m184 -51 c44 -27 63 -66 63 -128 0 -39 -6 -56 -26
-81 -38 -45 -79 -63 -130 -57 -141 15 -182 194 -61 267 43 27 110 26 154 -1z"/>
<path d="M2873 5000 c-28 -16 -61 -43 -73 -60 l-21 -30 -478 0 c-358 0 -480
-3 -489 -12 -8 -8 -12 -55 -12 -144 0 -112 -3 -135 -17 -150 -16 -16 -76 -16
-900 -9 l-883 7 0 -96 0 -96 966 0 c646 0 972 3 985 10 17 10 19 22 19 141 0
72 5 139 10 150 10 18 25 19 396 19 l385 0 42 -46 c91 -101 207 -112 305 -29
40 33 82 113 82 155 0 40 -35 114 -73 151 -74 74 -159 88 -244 39z m227 -106
c63 -72 44 -179 -40 -222 -129 -67 -263 67 -196 195 45 87 170 101 236 27z"/>
<path d="M10853 3570 c-22 -9 -23 -14 -23 -144 0 -74 -3 -141 -6 -150 -5 -14
-50 -16 -395 -16 l-388 0 -43 46 c-74 81 -160 103 -243 65 -53 -24 -93 -65
-121 -126 -29 -61 -29 -77 -3 -135 60 -133 196 -188 300 -121 24 15 57 42 73
60 l30 31 470 0 c279 0 477 4 486 10 12 7 16 40 20 152 l5 143 893 3 892 2 0
95 0 95 -962 -1 c-549 0 -973 -4 -985 -9z m-996 -241 c40 -15 81 -57 94 -96
33 -101 -65 -208 -170 -187 -44 9 -96 61 -109 107 -31 110 80 216 185 176z"/>
<path d="M11120 3075 l0 -256 -41 -42 c-43 -44 -89 -127 -89 -162 0 -31 44
-117 76 -149 93 -92 209 -90 301 6 33 34 63 103 63 142 0 51 -32 115 -81 161
l-49 46 0 159 c0 135 2 159 16 164 9 3 346 6 750 6 l734 0 0 90 0 90 -840 0
-840 0 0 -255z m150 -343 c136 -68 86 -277 -66 -274 -89 1 -151 71 -141 160 6
53 30 88 77 113 43 24 85 24 130 1z"/>
</g>
</svg>
