<svg width="821" height="187" viewBox="0 0 821 187" fill="none" xmlns="http://www.w3.org/2000/svg">
<path d="M56.6094 145.984C52.6406 143.922 49.9844 141.172 48.6406 137.734C47.2969 134.266 46.625 130.094 46.625 125.219V103.938C46.625 94.0625 49.1875 87.3281 54.3125 83.7344C58.6562 80.7031 64.9688 79.1875 73.25 79.1875C81.5625 79.1875 87.5938 80.3438 91.3438 82.6562C95.0938 84.9375 97.4375 88.5312 98.375 93.4375C98.8125 95.625 99.0312 98.2344 99.0312 101.266L90.0781 102.062C90.0781 97.5 89.6875 94.4219 88.9062 92.8281C88.125 91.2031 87.3438 90.0469 86.5625 89.3594C85.8125 88.6719 84.5625 88.0781 82.8125 87.5781C81.0625 87.0469 78.3281 86.7812 74.6094 86.7812C70.8906 86.7812 67.9688 87.0312 65.8438 87.5312C63.7188 88 61.9062 88.8125 60.4062 89.9688C57.5312 92.1875 56.0938 96.2656 56.0938 102.203V126.672C56.0938 132.547 57.5469 136.484 60.4531 138.484C63.3594 140.453 67.9844 141.438 74.3281 141.438C80.7031 141.438 84.7656 140.688 86.5156 139.188C88.2656 137.688 89.3438 135.5 89.75 132.625C89.9688 131.062 90.0781 129.188 90.0781 127H99.0312C99.0312 133.812 98.0469 138.594 96.0781 141.344C92.4531 146.469 85.5625 149.031 75.4062 149.031C66.875 149.031 60.6094 148.016 56.6094 145.984ZM115.625 167.031V160.141C119.5 160.141 122.625 159.188 125 157.281C127.406 155.375 129.203 152.219 130.391 147.812L109.906 98.3125H119.234L134.422 137.875L147.125 98.3125H156.031L139.719 145.891C137.562 152.172 135.609 156.516 133.859 158.922C132.141 161.359 130.484 163.062 128.891 164.031C125.609 166.031 121.188 167.031 115.625 167.031ZM183.594 148.375C180.688 148.375 178.312 148.156 176.469 147.719C174.625 147.281 173 146.453 171.594 145.234C168.969 142.953 167.656 138.281 167.656 131.219V77.4531H176.469V131.312C176.469 135.312 177.062 137.922 178.25 139.141C179.438 140.359 181.891 140.969 185.609 140.969H187.156L186.125 148.375H183.594ZM207.125 133.984C207.125 139.516 211.047 142.281 218.891 142.281C226.734 142.281 230.656 139.516 230.656 133.984V112.469C230.656 106.906 226.734 104.125 218.891 104.125C211.047 104.125 207.125 106.906 207.125 112.469V133.984ZM239.469 133.234C239.469 138.109 237.797 141.969 234.453 144.812C231.141 147.625 225.938 149.031 218.844 149.031C211.75 149.031 206.547 147.625 203.234 144.812C199.953 142 198.312 138.141 198.312 133.234V113.219C198.312 108.312 199.953 104.453 203.234 101.641C206.547 98.7969 211.75 97.375 218.844 97.375C225.938 97.375 231.141 98.7969 234.453 101.641C237.797 104.484 239.469 108.344 239.469 113.219V133.234ZM286.812 111.391C286.812 106.547 283.109 104.125 275.703 104.125C272.047 104.125 269.172 104.906 267.078 106.469C264.984 108.031 263.938 110.078 263.938 112.609V148H255.125V98.3125H263.938V103.141C267.25 99.2969 272.156 97.375 278.656 97.375C287.094 97.375 292.438 100.344 294.688 106.281C295.312 107.969 295.625 109.844 295.625 111.906V148H286.812V111.391ZM331.484 149.031C324.203 149.031 318.938 147.516 315.688 144.484C312.438 141.453 310.812 136.781 310.812 130.469V113.172C310.812 108.266 312.484 104.406 315.828 101.594C319.172 98.7812 324.219 97.375 330.969 97.375C337.75 97.375 342.781 98.6875 346.062 101.312C349.375 103.906 351.031 107.625 351.031 112.469V124.281H319.625V131.266C319.625 135.391 320.453 138.266 322.109 139.891C323.766 141.484 326.75 142.281 331.062 142.281C335.375 142.281 337.812 142.188 338.375 142C338.938 141.812 339.516 141.594 340.109 141.344C340.703 141.094 341.109 140.797 341.328 140.453C341.578 140.109 341.891 139.594 342.266 138.906C342.672 138.188 342.969 136.812 343.156 134.781H350.938C350.625 137.75 350.094 140.141 349.344 141.953C348.625 143.766 347.469 145.219 345.875 146.312C344.312 147.375 342.422 148.094 340.203 148.469C338.016 148.844 335.109 149.031 331.484 149.031ZM319.625 118.328H342.5V111.531C342.5 108.719 341.531 106.781 339.594 105.719C337.688 104.656 334.875 104.125 331.156 104.125C327.438 104.125 324.578 104.766 322.578 106.047C320.609 107.328 319.625 109.438 319.625 112.375V118.328ZM392.094 148V80.2188H401.516V110.172H434.422V80.2188H443.844V148H434.422V117.109H401.516V148H392.094ZM469.531 133.984C469.531 139.516 473.453 142.281 481.297 142.281C489.141 142.281 493.062 139.516 493.062 133.984V112.469C493.062 106.906 489.141 104.125 481.297 104.125C473.453 104.125 469.531 106.906 469.531 112.469V133.984ZM501.875 133.234C501.875 138.109 500.203 141.969 496.859 144.812C493.547 147.625 488.344 149.031 481.25 149.031C474.156 149.031 468.953 147.625 465.641 144.812C462.359 142 460.719 138.141 460.719 133.234V113.219C460.719 108.312 462.359 104.453 465.641 101.641C468.953 98.7969 474.156 97.375 481.25 97.375C488.344 97.375 493.547 98.7969 496.859 101.641C500.203 104.484 501.875 108.344 501.875 113.219V133.234ZM534.172 149.031C525.703 149.031 520.328 146.031 518.047 140.031C517.391 138.312 517.062 136.438 517.062 134.406V98.3125H525.875V134.453C525.875 136.891 526.766 138.812 528.547 140.219C530.359 141.594 533.047 142.281 536.609 142.281C540.172 142.281 543.062 141.406 545.281 139.656C547.531 137.875 548.656 135.828 548.656 133.516V98.3125H557.469V148H549.594L548.656 141.766C545.906 146.609 541.078 149.031 534.172 149.031ZM574.906 148V98.3125H583.719V105.344C584.844 102.281 587.891 100.062 592.859 98.6875C595.453 97.9375 598.156 97.5781 600.969 97.6094L600.688 105.156C596.438 105.156 592.547 106 589.016 107.688C585.484 109.375 583.719 111.219 583.719 113.219V148H574.906ZM626.984 142.281C633.641 142.281 636.969 139.797 636.969 134.828C636.969 132.672 636.672 131.078 636.078 130.047C635.484 128.984 634.094 128.047 631.906 127.234L620.094 122.875C616.469 121.594 613.938 120.078 612.5 118.328C611.094 116.547 610.391 114.328 610.391 111.672C610.391 109.016 610.656 106.891 611.188 105.297C611.719 103.672 612.594 102.25 613.812 101.031C616.25 98.5938 620.625 97.375 626.938 97.375C633.25 97.375 638.688 98.2812 643.25 100.094L641.234 106.844C639.641 106.188 637.547 105.578 634.953 105.016C632.359 104.422 630.094 104.125 628.156 104.125C623.688 104.125 620.859 104.844 619.672 106.281C618.953 107.188 618.594 108.516 618.594 110.266C618.594 112.016 618.875 113.266 619.438 114.016C620.031 114.734 621.172 115.391 622.859 115.984L634.531 120.578C638.594 122.172 641.266 123.938 642.547 125.875C643.828 127.781 644.469 130.797 644.469 134.922C644.469 139.047 643.141 142.438 640.484 145.094C637.828 147.719 633.719 149.031 628.156 149.031C624.094 149.031 620.484 148.594 617.328 147.719C614.172 146.844 611.75 145.938 610.062 145L612.219 138.531C616.688 141.031 621.609 142.281 626.984 142.281Z" fill="#F1BE48"/>
<path d="M735.183 139.517L708.145 110L735.183 80.4833L726.954 71.5L691.687 110L726.954 148.5L735.183 139.517ZM765.748 139.517L792.786 110L765.748 80.4833L773.977 71.5L809.244 110L773.977 148.5L765.748 139.517Z" fill="#F1BE48"/>
</svg>
